<svg width="500" height="100" viewBox="0 0 500 100" fill="none" xmlns="http://www.w3.org/2000/svg">
<g clip-path="url(#clip0_8185_9527)">
<path d="M397.393 45.3497C397.393 45.3497 372.411 38.5004 356.409 57.2459C340.406 75.9914 349.312 100 349.312 100C348.588 95.8183 347.574 87.0944 351.123 77.217C352.498 73.2516 356.698 62.0043 368.718 54.8666C370.963 53.5689 381.463 47.5847 395.221 49.8198C415.496 53.1363 424.765 71.3771 425.706 73.2516C421.217 51.478 397.393 45.3497 397.393 45.3497Z" fill="#0A0A0B"/>
<path d="M445.981 48.2336C443.447 47.6568 439.102 46.287 439.247 45.2055C439.319 44.4124 441.998 43.5472 453.512 43.3309C453.512 43.3309 443.591 42.2495 429.906 41.889C429.906 41.889 437.074 51.7664 443.954 49.964L462.925 50.1802C462.925 50.1802 461.549 49.8198 458.219 49.3872C452.353 48.5941 450.253 49.243 445.981 48.2336Z" fill="#0A0A0B"/>
<path d="M237.582 34.2466C237.582 34.2466 245.112 32.8046 248.733 24.8017C248.733 24.8017 229.327 24.297 218.827 30.858C218.827 30.858 231.934 27.2531 240.985 28.4066C241.057 28.4066 243.013 29.6323 237.582 34.2466Z" fill="#0A0A0B"/>
<path d="M461.912 36.1211H453.512C454.526 32.8767 464.301 29.4881 464.301 29.4881C366.112 18.6013 333.237 43.1146 333.237 43.1146C374.294 24.3691 451.991 32.7325 451.991 32.7325L441.926 39.6539C441.926 39.6539 448.081 38.6446 458.87 39.6539C469.66 40.6633 467.777 59.9856 467.777 59.9856C471.832 36.1211 461.912 36.1211 461.912 36.1211Z" fill="#0A0A0B"/>
<path d="M354.815 20.4037C354.815 20.4037 308.038 6.12833 264.012 10.8868C219.986 15.6453 198.769 38.5725 198.769 38.5725C326.503 44.2682 351.195 26.0995 351.195 26.0995C306.517 39.9423 211.151 35.1838 211.151 35.1838C251.919 -5.04687 354.815 20.4037 354.815 20.4037Z" fill="#0A0A0B"/>
<path d="M91.5279 52.7037C61.1151 69.0699 73.8595 99.7116 73.8595 99.7116C73.3526 96.7556 70.4562 79.3079 81.5351 66.3302C86.5315 60.4903 92.7588 57.4622 94.714 56.4528C96.3794 55.6597 104.634 51.8385 113.758 52.3432C133.526 53.3526 145.04 73.6842 145.836 75.1983C144.533 71.5213 140.333 61.3554 129.471 54.5782C118.03 47.5126 103.186 46.5032 91.5279 52.7037Z" fill="#0A0A0B"/>
<path d="M242.578 52.2711C226.792 51.9106 211.586 50.9733 196.959 49.6756C185.445 48.522 173.135 47.9452 160.029 48.0894C150.833 48.2336 141.926 48.7383 133.526 49.4593C165.46 48.3057 201.738 53.0642 201.738 53.0642C281.535 61.9322 306.445 50.9733 306.445 50.9733C286.242 52.2711 264.953 52.8479 242.578 52.2711Z" fill="#0A0A0B"/>
<path d="M448.226 99.4232H447.14C442.795 99.4232 439.609 99.2069 437.654 98.7022C435.699 98.1975 434.395 97.3324 433.671 96.1067C432.947 94.881 432.585 92.7902 432.585 89.9784V88.8969H438.523V89.7621C438.523 91.4924 439.03 92.5739 440.116 93.0065C441.202 93.4391 443.736 93.6554 447.791 93.6554H448.588C450.76 93.6554 452.353 93.5833 453.439 93.5112C454.526 93.4391 455.394 93.2228 456.046 92.7902C456.698 92.4297 457.132 91.925 457.35 91.2761C457.494 90.6994 457.567 89.7621 457.567 88.5364V87.8875C457.567 86.3014 457.422 85.1478 457.06 84.4989C456.698 83.85 455.974 83.4175 454.815 83.1291C453.657 82.8407 451.629 82.6965 448.805 82.6965H447.284C444.243 82.6965 442.216 82.8407 441.057 83.2012C439.971 83.5616 439.319 84.2105 439.03 85.2199H433.309V66.3302H462.563V72.0981H439.102C439.102 72.9632 439.102 74.261 439.174 75.7751C439.174 77.3612 439.247 78.5869 439.247 79.5242C440.623 77.8659 443.736 77.0007 448.733 77.0007H450.326C454.236 77.0007 457.06 77.2891 458.943 77.8659C460.753 78.4427 462.056 79.4521 462.708 80.8219C463.36 82.1918 463.722 84.3547 463.722 87.3107V88.6085C463.722 90.4831 463.577 92.0692 463.36 93.2228C463.143 94.3764 462.708 95.3857 462.129 96.323C461.549 97.1882 460.681 97.8371 459.377 98.2697C458.146 98.7022 456.625 98.9906 454.96 99.2069C453.295 99.3511 451.05 99.4232 448.226 99.4232Z" fill="#BC2831"/>
<path d="M484.504 99.4232H483.418C479.073 99.4232 475.887 99.2069 473.932 98.7022C471.977 98.1975 470.674 97.3324 469.949 96.1067C469.225 94.881 468.863 92.7902 468.863 89.9784V88.8969H474.801V89.7621C474.801 91.4924 475.308 92.5739 476.394 93.0065C477.48 93.4391 480.015 93.6554 484.07 93.6554H484.866C487.038 93.6554 488.632 93.5833 489.718 93.5112C490.804 93.4391 491.673 93.2228 492.325 92.7902C492.976 92.4297 493.411 91.925 493.628 91.2761C493.773 90.6994 493.845 89.7621 493.845 88.5364V87.8875C493.845 86.3014 493.7 85.1478 493.338 84.4989C492.976 83.85 492.252 83.4175 491.094 83.1291C489.935 82.8407 487.907 82.6965 485.083 82.6965H483.563C480.521 82.6965 478.494 82.8407 477.335 83.2012C476.249 83.5616 475.598 84.2105 475.308 85.2199H469.587V66.3302H498.842V72.0981H475.38C475.38 72.9632 475.38 74.261 475.453 75.7751C475.453 77.3612 475.525 78.5869 475.525 79.5242C476.901 77.8659 480.015 77.0007 485.011 77.0007H486.604C490.514 77.0007 493.338 77.2891 495.221 77.8659C497.031 78.4427 498.335 79.4521 498.986 80.8219C499.638 82.1918 500 84.3547 500 87.3107V88.6085C500 90.4831 499.855 92.0692 499.638 93.2228C499.421 94.3764 498.986 95.3857 498.407 96.323C497.828 97.1882 496.959 97.8371 495.655 98.2697C494.424 98.7022 492.904 98.9906 491.238 99.2069C489.573 99.3511 487.328 99.4232 484.504 99.4232Z" fill="#BC2831"/>
<path d="M196.959 92.646V98.6301H166.691V66.6907H174.222V92.646H196.959Z" fill="#0A0A0B"/>
<path d="M260.174 92.646V98.6301H226.72V66.6907H259.812V72.4585H234.106V79.5242H258.508V85.1478H234.106V92.646H260.174Z" fill="#0A0A0B"/>
<path d="M328.023 88.969V89.3295C328.023 92.0692 327.589 94.088 326.72 95.3857C325.851 96.6835 324.186 97.6208 321.724 98.1975C319.262 98.7743 315.496 99.0627 310.427 99.0627H308.979C306.083 99.0627 303.693 98.9906 301.81 98.9185C299.928 98.8464 298.262 98.6301 296.814 98.3417C295.366 98.0533 294.28 97.6929 293.483 97.2603C292.759 96.8277 292.107 96.2509 291.6 95.4578C291.094 94.6647 290.804 93.7996 290.659 92.9344C290.514 91.9971 290.442 90.8435 290.442 89.3295V88.1038H297.828V89.1132C297.828 90.9877 298.407 92.2134 299.638 92.646C300.869 93.1507 303.766 93.367 308.472 93.367H309.631C312.962 93.367 315.351 93.2228 316.872 93.0065C318.393 92.7902 319.406 92.4297 319.913 91.925C320.42 91.4203 320.637 90.6273 320.637 89.5458V89.1853C320.637 87.9596 320.42 87.0944 319.986 86.6619C319.551 86.1572 318.537 85.7967 317.017 85.5804C315.496 85.3641 312.962 85.2199 309.341 85.2199C305.866 85.2199 303.041 85.1478 300.942 84.9315C298.842 84.7873 297.104 84.4989 295.655 84.1384C294.207 83.7779 293.194 83.2733 292.614 82.4802C291.963 81.6871 291.528 80.894 291.311 79.9567C291.094 79.0195 290.949 77.7217 290.949 76.0634V75.703C290.949 73.0353 291.383 71.0887 292.252 69.7909C293.121 68.4932 294.642 67.628 296.959 67.1233C299.204 66.6186 302.752 66.3302 307.459 66.3302H309.052C312.383 66.3302 315.062 66.4023 317.089 66.6186C319.189 66.8349 320.927 67.1233 322.23 67.4838C323.606 67.8443 324.62 68.4211 325.272 69.2862C325.923 70.0793 326.358 71.0166 326.575 71.9539C326.792 72.9632 326.937 74.261 326.937 75.8471V77.0007H319.551V76.2076C319.551 74.4052 318.972 73.2516 317.886 72.7469C316.8 72.2422 314.12 71.9539 309.993 71.9539H308.834C305.576 71.9539 303.259 72.026 301.81 72.2422C300.362 72.4585 299.421 72.819 298.986 73.3237C298.48 73.8284 298.262 74.6215 298.262 75.7751V76.1355C298.262 77.217 298.48 77.938 298.914 78.3706C299.348 78.8032 300.362 79.0916 301.955 79.3079C303.548 79.5242 306.228 79.5963 309.993 79.5963C312.817 79.5963 315.062 79.6683 316.872 79.7404C318.682 79.8125 320.275 80.0288 321.724 80.3172C323.172 80.6056 324.258 80.9661 324.982 81.3266C325.706 81.6871 326.358 82.2639 326.865 83.057C327.372 83.85 327.661 84.6431 327.806 85.5804C327.951 86.3735 328.023 87.527 328.023 88.969Z" fill="#0A0A0B"/>
<path d="M43.6642 82.1918L65.2427 98.6301H54.381L37.5092 85.4362H32.8749V98.6301H25.4165V66.6907H32.8749V79.3079H37.8712C38.4505 78.8032 40.6953 77.0007 44.6055 73.8284C48.5157 70.6561 51.4846 68.2769 53.5121 66.6907H63.6497L43.6642 82.1918Z" fill="#0A0A0B"/>
<path d="M101.014 96.8277C98.6241 95.8904 96.5241 94.5926 94.7139 92.8623C92.976 91.1319 91.6002 89.1853 90.5864 86.8782C89.5727 84.571 89.1382 82.1197 89.1382 79.38C89.1382 76.6402 89.6451 74.1889 90.5864 71.8818C91.6002 69.5746 92.9036 67.5559 94.7139 65.8976C96.4517 64.2394 98.5517 62.8695 101.014 62.0043C103.403 61.067 106.082 60.6345 108.906 60.6345C111.803 60.6345 114.41 61.1391 116.799 62.0764C119.189 63.0137 121.289 64.3115 123.099 66.0418C124.909 67.7001 126.285 69.7188 127.227 72.026C128.24 74.3331 128.675 76.7844 128.675 79.5242C128.675 82.1918 128.168 84.7152 127.227 86.9502C126.213 89.2574 124.837 91.204 123.099 92.9344C121.289 94.6647 119.189 95.9625 116.799 96.8998C114.337 97.8371 111.731 98.3417 108.906 98.3417C106.082 98.2696 103.476 97.765 101.014 96.8277ZM114.048 91.3482C115.641 90.6993 117.017 89.8342 118.175 88.6806C119.334 87.527 120.275 86.1572 120.927 84.571C121.578 82.9849 121.94 81.3266 121.94 79.4521C121.94 77.5775 121.578 75.8471 120.927 74.3331C120.275 72.819 119.334 71.4492 118.175 70.2235C117.017 69.0699 115.641 68.1327 114.048 67.5559C112.455 66.907 110.717 66.6186 108.906 66.6186C107.024 66.6186 105.358 66.907 103.765 67.5559C102.245 68.2048 100.869 69.0699 99.6378 70.2235C98.4792 71.3771 97.5379 72.7469 96.9586 74.3331C96.3069 75.9192 96.0173 77.6496 96.0173 79.5242C96.0173 81.3987 96.3069 83.1291 96.9586 84.7152C97.6103 86.3014 98.4792 87.6712 99.6378 88.8248C100.796 89.9784 102.172 90.8435 103.693 91.4924C105.213 92.1413 106.951 92.4297 108.834 92.4297C110.789 92.2855 112.455 91.9971 114.048 91.3482Z" fill="#0A0A0B"/>
<path d="M378.494 97.8371C376.104 96.8998 374.004 95.602 372.194 93.8717C370.456 92.1413 369.08 90.1947 368.066 87.8875C367.053 85.5804 366.618 83.1291 366.618 80.3893C366.618 77.6496 367.125 75.1983 368.066 72.8911C369.08 70.584 370.384 68.5653 372.194 66.907C373.932 65.2487 376.032 63.8789 378.494 63.0137C380.883 62.0764 383.562 61.6438 386.386 61.6438C389.283 61.6438 391.89 62.1485 394.279 63.0858C396.669 64.0231 398.769 65.3208 400.579 67.0512C402.389 68.7094 403.765 70.7282 404.707 73.0353C405.72 75.3425 406.155 77.7938 406.155 80.5335C406.155 83.2012 405.648 85.7246 404.707 87.9596C403.693 90.2668 402.317 92.2134 400.579 93.9438C398.769 95.6741 396.669 96.9719 394.279 97.9092C391.817 98.8464 389.21 99.3511 386.386 99.3511C383.562 99.2069 380.956 98.7022 378.494 97.8371ZM391.6 92.2855C393.193 91.6366 394.569 90.7715 395.728 89.6179C396.886 88.4643 397.827 87.0944 398.479 85.5083C399.131 83.9221 399.493 82.2639 399.493 80.3893C399.493 78.5148 399.131 76.7844 398.479 75.2704C397.827 73.7563 396.886 72.3864 395.728 71.1608C394.569 70.0072 393.193 69.0699 391.6 68.4932C390.007 67.8443 388.269 67.5559 386.459 67.5559C384.576 67.5559 382.911 67.8443 381.318 68.4932C379.797 69.142 378.421 70.0072 377.19 71.1608C376.032 72.3143 375.09 73.6842 374.511 75.2704C373.859 76.8565 373.57 78.5869 373.57 80.4614C373.57 82.336 373.859 84.0663 374.511 85.6525C375.163 87.2386 376.032 88.6085 377.19 89.7621C378.349 90.9156 379.725 91.7808 381.245 92.4297C382.838 93.0786 384.504 93.367 386.386 93.367C388.269 93.2228 390.007 92.9344 391.6 92.2855Z" fill="#0A0A0B"/>
<path d="M388.052 13.4823C338.668 4.10959 323.099 1.94665 304.345 0.937275C286.169 -0.072098 272.049 -0.793079 254.236 1.65826C235.626 4.25379 206.155 11.3194 173.208 33.1651H172.701C151.774 32.5883 133.961 33.1651 120.203 34.1024C91.6727 35.9048 76.9732 39.0771 70.4562 40.5912C53.2947 44.6287 44.2433 48.6662 39.8986 50.8291C26.1405 57.5342 17.4511 65.0324 15.134 67.1233C8.25489 73.2516 3.33092 79.3079 0 83.85C2.67922 82.6244 5.43085 81.3987 8.11007 80.173C11.6582 76.2797 16.8718 71.1608 23.8233 66.0418C33.7437 58.7599 43.3744 54.3619 53.0775 50.9012C77.4077 42.1774 100.434 40.1586 111.369 39.2934C137.002 37.2026 165.894 35.328 197.755 34.1024L175.163 33.3093C177.987 33.3814 180.811 33.5256 183.635 33.5977C217.958 12.9056 247.285 6.70512 268.429 5.04686C326.575 0.576785 392.831 25.2343 392.831 25.2343C392.831 25.2343 442.94 25.5948 456.988 27.181C429.906 21.5573 406.517 17.0151 388.052 13.4823Z" fill="#0A0A0B"/>
</g>
<defs>
<clipPath id="clip0_8185_9527">
<rect width="500" height="100" fill="white"/>
</clipPath>
</defs>
</svg>
