<svg xmlns="http://www.w3.org/2000/svg" version="1.1" xmlns:xlink="http://www.w3.org/1999/xlink" xmlns:svgjs="http://svgjs.dev/svgjs" width="64" height="64"><svg width="64" height="64" viewBox="0 0 64 64" fill="none" xmlns="http://www.w3.org/2000/svg">
<path d="M14.8485 48H13.8173C9.69273 48 6.66806 47.7909 4.812 47.3028C2.95595 46.8148 1.71857 45.9782 1.03114 44.793C0.343715 43.6078 0 41.5861 0 38.8671V37.8214H5.63689V38.658C5.63689 40.3312 6.11809 41.3769 7.14924 41.7952C8.18038 42.2135 10.5864 42.4227 14.436 42.4227H15.1922C17.2545 42.4227 18.7668 42.3529 19.798 42.2832C20.8291 42.2135 21.654 42.0044 22.2727 41.5861C22.8914 41.2375 23.3038 40.7495 23.51 40.122C23.6475 39.5643 23.7163 38.658 23.7163 37.4728V36.8453C23.7163 35.3116 23.5788 34.1961 23.2351 33.5686C22.8914 32.9412 22.2039 32.5229 21.104 32.244C20.0042 31.9651 18.0794 31.8257 15.3984 31.8257H13.9548C11.0676 31.8257 9.14277 31.9651 8.04289 32.3137C7.01174 32.6623 6.39307 33.2898 6.11809 34.2658H0.687429V16H28.4595V21.5773H6.18686C6.18686 22.4139 6.18685 23.6688 6.25559 25.1329C6.25559 26.6667 6.32432 27.8519 6.32432 28.7582C7.63043 27.1547 10.5864 26.3181 15.3297 26.3181H16.842C20.5541 26.3181 23.2351 26.597 25.0224 27.1547C26.741 27.7124 27.9784 28.6885 28.597 30.0131C29.2157 31.3377 29.5595 33.4292 29.5595 36.2876V37.5425C29.5595 39.3551 29.422 40.8889 29.2157 42.0044C29.0095 43.1198 28.597 44.0959 28.0471 45.0022C27.4972 45.8388 26.6723 46.4662 25.4349 46.8845C24.2663 47.3028 22.8226 47.5817 21.2415 47.7909C19.6604 47.9303 17.5294 48 14.8485 48Z" fill="#BC2831"></path>
<path d="M49.2889 48H48.2577C44.1332 48 41.1085 47.7909 39.2524 47.3028C37.3964 46.8148 36.159 45.9782 35.4716 44.793C34.7841 43.6078 34.4404 41.5861 34.4404 38.8671V37.8214H40.0774V38.658C40.0774 40.3312 40.5586 41.3769 41.5897 41.7952C42.6209 42.2135 45.0268 42.4227 48.8764 42.4227H49.6326C51.6949 42.4227 53.2072 42.3529 54.2384 42.2832C55.2695 42.2135 56.0945 42.0044 56.7132 41.5861C57.3318 41.2375 57.7443 40.7495 57.9505 40.122C58.088 39.5643 58.1567 38.658 58.1567 37.4728V36.8453C58.1567 35.3116 58.0192 34.1961 57.6755 33.5686C57.3318 32.9412 56.6444 32.5229 55.5445 32.244C54.4446 31.9651 52.5198 31.8257 49.8389 31.8257H48.3952C45.508 31.8257 43.5832 31.9651 42.4834 32.3137C41.4522 32.6623 40.8335 33.2898 40.5586 34.2658H35.1279V16H62.9V21.5773H40.6273C40.6273 22.4139 40.6273 23.6688 40.696 25.1329C40.696 26.6667 40.7648 27.8519 40.7648 28.7582C42.0709 27.1547 45.0268 26.3181 49.7701 26.3181H51.2824C54.9946 26.3181 57.6756 26.597 59.4629 27.1547C61.1814 27.7124 62.4188 28.6885 63.0375 30.0131C63.6562 31.3377 63.9999 33.4292 63.9999 36.2876V37.5425C63.9999 39.3551 63.8624 40.8889 63.6562 42.0044C63.4499 43.1198 63.0375 44.0959 62.4875 45.0022C61.9376 45.8388 61.1127 46.4662 59.8753 46.8845C58.7067 47.3028 57.2631 47.5817 55.682 47.7909C54.1009 47.9303 51.9699 48 49.2889 48Z" fill="#BC2831"></path>
</svg><style>@media (prefers-color-scheme: light) { :root { filter: none; } }
@media (prefers-color-scheme: dark) { :root { filter: none; } }
</style></svg>